<?xml version="1.0" standalone="no"?>
<!DOCTYPE svg PUBLIC "-//W3C//DTD SVG 20010904//EN"
 "http://www.w3.org/TR/2001/REC-SVG-20010904/DTD/svg10.dtd">
<svg version="1.0" xmlns="http://www.w3.org/2000/svg"
 width="879.000000pt" height="651.000000pt" viewBox="0 0 879.000000 651.000000"
 preserveAspectRatio="xMidYMid meet">
<metadata>
Created by potrace 1.16, written by Peter Selinger 2001-2019
</metadata>
<g transform="translate(0.000000,651.000000) scale(0.100000,-0.100000)"
fill="#000000" stroke="none">
<path d="M0 3255 l0 -3255 4395 0 4395 0 0 3255 0 3255 -4395 0 -4395 0 0
-3255z m8720 0 l0 -3185 -4325 0 -4325 0 0 3185 0 3185 4325 0 4325 0 0 -3185z"/>
<path d="M940 5540 l0 -60 70 0 c210 0 383 -83 441 -213 l24 -52 3 -1425 c3
-1592 7 -1498 -66 -1596 -68 -89 -234 -153 -399 -154 l-73 0 0 -60 0 -60 830
0 830 0 0 60 0 60 -69 0 c-166 0 -316 53 -394 140 -83 93 -78 -31 -75 1605 l3
1450 29 53 c17 30 47 67 67 83 84 66 229 109 370 109 l69 0 0 60 0 60 -830 0
-830 0 0 -60z"/>
<path d="M4180 5540 l0 -60 63 0 c138 -1 288 -56 348 -129 16 -20 38 -60 49
-89 20 -53 20 -76 18 -1520 l-3 -1467 -23 -50 c-29 -63 -64 -101 -122 -130
-62 -31 -175 -55 -259 -55 l-71 0 0 -60 0 -60 908 0 c961 0 1046 3 1282 49
241 47 413 106 620 212 180 93 301 180 440 319 321 319 470 718 470 1255 0
593 -191 1045 -580 1369 -278 232 -621 377 -1056 448 -136 21 -161 22 -1111
25 l-973 4 0 -61z m1690 -170 c344 -42 618 -150 847 -334 394 -318 589 -864
532 -1486 -64 -703 -450 -1174 -1090 -1330 -184 -45 -352 -63 -547 -58 -148 3
-173 6 -219 27 -74 33 -128 95 -142 162 -8 39 -11 460 -9 1479 l3 1425 23 42
c24 46 41 58 99 72 53 13 401 13 503 1z"/>
<path d="M886 1156 c17 -8 34 -21 38 -31 3 -9 6 -88 6 -175 0 -87 -3 -166 -6
-175 -4 -10 -21 -23 -38 -31 -28 -12 -22 -13 79 -13 104 1 108 1 78 15 l-33
14 0 190 0 190 33 14 c30 14 26 14 -78 15 -101 0 -107 -1 -79 -13z"/>
<path d="M1180 1152 l35 -17 3 -170 c1 -93 0 -179 -2 -191 -4 -13 -19 -25 -38
-31 -28 -9 -18 -11 62 -11 80 0 90 2 62 11 -19 6 -34 18 -38 31 -2 12 -3 82
-2 157 l3 137 148 -174 c82 -96 152 -172 158 -169 5 4 9 91 9 203 0 108 4 202
8 208 4 6 21 16 37 22 25 9 15 10 -65 10 -88 0 -93 0 -60 -12 l35 -13 3 -72
c2 -39 2 -101 0 -137 l-3 -65 -125 150 -124 151 -71 0 -70 0 35 -18z"/>
<path d="M1730 1115 c0 -60 15 -73 31 -26 12 33 45 51 95 51 l34 0 -2 -192 -3
-191 -35 -13 c-32 -11 -25 -13 80 -13 l115 -1 -35 18 -35 17 -3 188 -2 187 34
0 c54 0 86 -17 97 -50 12 -32 39 -41 39 -12 0 9 -3 34 -6 55 l-7 37 -198 0
-199 0 0 -55z"/>
<path d="M2238 1155 l32 -14 0 -191 0 -191 -32 -14 c-30 -13 -15 -14 164 -15
l197 0 11 43 c6 23 13 50 16 60 9 29 -20 19 -38 -13 -10 -17 -33 -37 -52 -45
-43 -18 -157 -20 -174 -3 -7 7 -12 43 -12 90 l0 78 60 0 c67 0 107 -14 115
-42 13 -40 25 -14 25 57 0 72 -12 97 -25 54 -9 -27 -44 -39 -116 -39 l-59 0 0
66 c0 95 7 104 85 104 74 0 108 -13 124 -46 17 -39 31 -28 31 26 l0 50 -192 0
c-175 -1 -190 -2 -160 -15z"/>
<path d="M2738 1155 l32 -14 0 -191 0 -191 -32 -14 c-31 -13 -27 -14 72 -15
l105 0 -32 20 c-33 20 -33 20 -33 100 0 109 14 106 114 -20 l80 -100 65 0 c64
1 65 1 39 16 -16 8 -61 54 -102 102 l-75 87 37 13 c74 25 102 93 67 161 -24
48 -76 61 -233 61 -127 -1 -135 -2 -104 -15z m239 -47 c23 -21 30 -59 17 -93
-8 -21 -49 -41 -101 -50 l-43 -7 0 84 c0 47 3 88 8 92 13 14 95 -4 119 -26z"/>
<path d="M3276 1156 c17 -8 34 -21 38 -31 3 -9 6 -88 6 -175 0 -87 -3 -166 -6
-175 -4 -10 -21 -23 -38 -31 -28 -12 -22 -13 79 -13 104 1 108 1 78 15 l-33
14 0 190 0 190 33 14 c30 14 26 14 -78 15 -101 0 -107 -1 -79 -13z"/>
<path d="M3685 1151 c-171 -79 -166 -333 7 -405 48 -20 148 -20 196 0 80 33
131 111 132 200 0 97 -36 160 -114 199 -63 31 -160 34 -221 6z m182 -36 c55
-37 83 -179 49 -258 -32 -77 -117 -114 -183 -80 -75 39 -107 171 -67 273 33
81 129 112 201 65z"/>
<path d="M4138 1155 l32 -14 0 -191 0 -191 -32 -14 c-31 -13 -27 -14 72 -15
l105 0 -32 20 c-33 20 -33 20 -33 100 0 109 14 106 114 -20 l80 -100 65 0 c64
1 65 1 39 16 -16 8 -61 54 -102 102 l-75 87 37 13 c74 25 102 93 67 161 -24
48 -76 61 -233 61 -127 -1 -135 -2 -104 -15z m239 -47 c23 -21 30 -59 17 -93
-8 -21 -49 -41 -101 -50 l-43 -7 0 84 c0 47 3 88 8 92 13 14 95 -4 119 -26z"/>
<path d="M4928 1156 l32 -15 0 -191 0 -191 -32 -15 c-30 -13 -20 -14 127 -12
150 3 163 5 204 28 24 14 58 42 75 63 27 34 31 48 34 111 6 104 -28 164 -118
212 -29 16 -62 19 -195 22 -147 2 -157 1 -127 -12z m228 -31 c86 -25 124 -82
124 -184 0 -95 -61 -162 -160 -176 -80 -11 -80 -10 -80 190 0 94 3 175 7 178
11 11 56 8 109 -8z"/>
<path d="M5488 1155 l32 -14 0 -191 0 -191 -32 -14 c-30 -13 -15 -14 164 -15
l197 0 11 43 c6 23 13 50 16 60 9 29 -20 19 -38 -13 -10 -17 -33 -37 -52 -45
-43 -18 -157 -20 -174 -3 -7 7 -12 43 -12 90 l0 78 60 0 c67 0 107 -14 115
-42 13 -40 25 -14 25 57 0 72 -12 97 -25 54 -9 -27 -44 -39 -116 -39 l-59 0 0
66 c0 95 7 104 85 104 74 0 108 -13 124 -46 17 -39 31 -28 31 26 l0 50 -192 0
c-175 -1 -190 -2 -160 -15z"/>
<path d="M6043 1151 c-21 -13 -35 -32 -42 -58 -16 -55 9 -100 79 -140 101 -58
115 -68 128 -95 28 -60 -33 -112 -108 -89 -35 10 -91 61 -102 93 -12 32 -19
-6 -13 -64 l7 -63 99 -3 c148 -4 202 28 202 119 0 51 -29 81 -128 137 -38 22
-78 51 -89 65 -18 24 -18 27 -2 51 9 14 27 28 41 32 34 8 96 -24 120 -63 27
-43 50 -44 41 -2 -3 17 -6 46 -6 63 l0 32 -97 2 c-82 2 -103 -1 -130 -17z"/>
<path d="M6446 1156 c17 -8 34 -21 38 -31 3 -9 6 -88 6 -175 0 -87 -3 -166 -6
-175 -4 -10 -21 -23 -38 -31 -28 -12 -22 -13 79 -13 104 1 108 1 78 15 l-33
14 0 190 0 190 33 14 c30 14 26 14 -78 15 -101 0 -107 -1 -79 -13z"/>
<path d="M6875 1160 c-43 -13 -109 -72 -130 -116 -20 -42 -22 -134 -5 -179 18
-48 79 -103 133 -121 60 -20 172 -15 235 11 l42 17 0 75 c0 65 3 77 25 98 l24
25 -92 0 -92 0 33 -20 c31 -19 32 -22 32 -89 0 -79 -6 -86 -71 -96 -36 -5 -57
-2 -91 13 -179 79 -112 386 78 357 48 -7 108 -50 119 -86 4 -10 13 -19 21 -19
15 0 18 38 8 100 l-6 36 -116 1 c-65 1 -131 -2 -147 -7z"/>
<path d="M7310 1152 l35 -17 3 -170 c1 -93 0 -179 -2 -191 -4 -13 -19 -25 -38
-31 -28 -9 -18 -11 62 -11 80 0 90 2 62 11 -19 6 -34 18 -38 31 -2 12 -3 82
-2 157 l3 137 148 -174 c82 -96 152 -172 158 -169 5 4 9 91 9 203 0 108 4 202
8 208 4 6 21 16 37 22 25 9 15 10 -65 10 -88 0 -93 0 -60 -12 l35 -13 3 -72
c2 -39 2 -101 0 -137 l-3 -65 -125 150 -124 151 -71 0 -70 0 35 -18z"/>
</g>
</svg>
