<svg version="1.0" xmlns="http://www.w3.org/2000/svg" width="2088" height="1400" viewBox="0 0 1566 1050"><path d="M351 535.5V861h879V210H351v325.5zm872 0V854H358V217h865v318.5z"/><path d="M445 307v6h7c21 0 38.3 8.3 44.1 21.3l2.4 5.2.3 142.5c.3 159.2.7 149.8-6.6 159.6-6.8 8.9-23.4 15.3-39.9 15.4H445v12h166v-12h-6.9c-16.6 0-31.6-5.3-39.4-14-8.3-9.3-7.8 3.1-7.5-160.5l.3-145 2.9-5.3c1.7-3 4.7-6.7 6.7-8.3 8.4-6.6 22.9-10.9 37-10.9h6.9v-12H445v6zM769 307v6h6.3c13.8.1 28.8 5.6 34.8 12.9 1.6 2 3.8 6 4.9 8.9 2 5.3 2 7.6 1.8 152l-.3 146.7-2.3 5c-2.9 6.3-6.4 10.1-12.2 13-6.2 3.1-17.5 5.5-25.9 5.5H769v12h90.8c96.1 0 104.6-.3 128.2-4.9 24.1-4.7 41.3-10.6 62-21.2 18-9.3 30.1-18 44-31.9 32.1-31.9 47-71.8 47-125.5 0-59.3-19.1-104.5-58-136.9-27.8-23.2-62.1-37.7-105.6-44.8-13.6-2.1-16.1-2.2-111.1-2.5l-97.3-.4v6.1zm169 17c34.4 4.2 61.8 15 84.7 33.4 39.4 31.8 58.9 86.4 53.2 148.6-6.4 70.3-45 117.4-109 133-18.4 4.5-35.2 6.3-54.7 5.8-14.8-.3-17.3-.6-21.9-2.7-7.4-3.3-12.8-9.5-14.2-16.2-.8-3.9-1.1-46-.9-147.9l.3-142.5 2.3-4.2c2.4-4.6 4.1-5.8 9.9-7.2 5.3-1.3 40.1-1.3 50.3-.1zM439.6 745.4c1.7.8 3.4 2.1 3.8 3.1.3.9.6 8.8.6 17.5s-.3 16.6-.6 17.5c-.4 1-2.1 2.3-3.8 3.1-2.8 1.2-2.2 1.3 7.9 1.3 10.4-.1 10.8-.1 7.8-1.5L452 785v-38l3.3-1.4c3-1.4 2.6-1.4-7.8-1.5-10.1 0-10.7.1-7.9 1.3zM469 745.8l3.5 1.7.3 17c.1 9.3 0 17.9-.2 19.1-.4 1.3-1.9 2.5-3.8 3.1-2.8.9-1.8 1.1 6.2 1.1s9-.2 6.2-1.1c-1.9-.6-3.4-1.8-3.8-3.1-.2-1.2-.3-8.2-.2-15.7l.3-13.7 14.8 17.4c8.2 9.6 15.2 17.2 15.8 16.9.5-.4.9-9.1.9-20.3 0-10.8.4-20.2.8-20.8.4-.6 2.1-1.6 3.7-2.2 2.5-.9 1.5-1-6.5-1-8.8 0-9.3 0-6 1.2l3.5 1.3.3 7.2c.2 3.9.2 10.1 0 13.7l-.3 6.5-12.5-15-12.4-15.1h-14.1l3.5 1.8zM524 749.5c0 6 1.5 7.3 3.1 2.6 1.2-3.3 4.5-5.1 9.5-5.1h3.4l-.2 19.2-.3 19.1-3.5 1.3c-3.2 1.1-2.5 1.3 8 1.3l11.5.1-3.5-1.8-3.5-1.7-.3-18.8-.2-18.7h3.4c5.4 0 8.6 1.7 9.7 5 1.2 3.2 3.9 4.1 3.9 1.2 0-.9-.3-3.4-.6-5.5l-.7-3.7H524v5.5zM574.8 745.5l3.2 1.4v38.2l-3.2 1.4c-3 1.3-1.5 1.4 16.4 1.5h19.7l1.1-4.3c.6-2.3 1.3-5 1.6-6 .9-2.9-2-1.9-3.8 1.3-1 1.7-3.3 3.7-5.2 4.5-4.3 1.8-15.7 2-17.4.3-.7-.7-1.2-4.3-1.2-9V767h6c6.7 0 10.7 1.4 11.5 4.2 1.3 4 2.5 1.4 2.5-5.7 0-7.2-1.2-9.7-2.5-5.4-.9 2.7-4.4 3.9-11.6 3.9H586v-6.6c0-9.5.7-10.4 8.5-10.4 7.4 0 10.8 1.3 12.4 4.6 1.7 3.9 3.1 2.8 3.1-2.6v-5h-19.2c-17.5.1-19 .2-16 1.5zM624.8 745.5l3.2 1.4v38.2l-3.2 1.4c-3.1 1.3-2.7 1.4 7.2 1.5h10.5l-3.2-2c-3.3-2-3.3-2-3.3-10 0-10.9 1.4-10.6 11.4 2l8 10h6.5c6.4-.1 6.5-.1 3.9-1.6-1.6-.8-6.1-5.4-10.2-10.2l-7.5-8.7 3.7-1.3c7.4-2.5 10.2-9.3 6.7-16.1-2.4-4.8-7.6-6.1-23.3-6.1-12.7.1-13.5.2-10.4 1.5zm23.9 4.7c2.3 2.1 3 5.9 1.7 9.3-.8 2.1-4.9 4.1-10.1 5l-4.3.7v-8.4c0-4.7.3-8.8.8-9.2 1.3-1.4 9.5.4 11.9 2.6zM678.6 745.4c1.7.8 3.4 2.1 3.8 3.1.3.9.6 8.8.6 17.5s-.3 16.6-.6 17.5c-.4 1-2.1 2.3-3.8 3.1-2.8 1.2-2.2 1.3 7.9 1.3 10.4-.1 10.8-.1 7.8-1.5L691 785v-38l3.3-1.4c3-1.4 2.6-1.4-7.8-1.5-10.1 0-10.7.1-7.9 1.3zM719.5 745.9c-17.1 7.9-16.6 33.3.7 40.5 2.1.9 6.5 1.6 9.8 1.6 13.6 0 22.9-8.8 23-21.6 0-9.7-3.6-16-11.4-19.9-6.3-3.1-16-3.4-22.1-.6zm18.2 3.6c5.5 3.7 8.3 17.9 4.9 25.8-3.2 7.7-11.7 11.4-18.3 8-7.5-3.9-10.7-17.1-6.7-27.3 3.3-8.1 12.9-11.2 20.1-6.5zM764.8 745.5l3.2 1.4v38.2l-3.2 1.4c-3.1 1.3-2.7 1.4 7.2 1.5h10.5l-3.2-2c-3.3-2-3.3-2-3.3-10 0-10.9 1.4-10.6 11.4 2l8 10h6.5c6.4-.1 6.5-.1 3.9-1.6-1.6-.8-6.1-5.4-10.2-10.2l-7.5-8.7 3.7-1.3c7.4-2.5 10.2-9.3 6.7-16.1-2.4-4.8-7.6-6.1-23.3-6.1-12.7.1-13.5.2-10.4 1.5zm23.9 4.7c2.3 2.1 3 5.9 1.7 9.3-.8 2.1-4.9 4.1-10.1 5l-4.3.7v-8.4c0-4.7.3-8.8.8-9.2 1.3-1.4 9.5.4 11.9 2.6zM843.8 745.4l3.2 1.5v38.2l-3.2 1.5c-3 1.3-2 1.4 12.7 1.2 15-.3 16.3-.5 20.4-2.8 2.4-1.4 5.8-4.2 7.5-6.3 2.7-3.4 3.1-4.8 3.4-11.1.6-10.4-2.8-16.4-11.8-21.2-2.9-1.6-6.2-1.9-19.5-2.2-14.7-.2-15.7-.1-12.7 1.2zm22.8 3.1c8.6 2.5 12.4 8.2 12.4 18.4 0 9.5-6.1 16.2-16 17.6-8 1.1-8 1-8-19 0-9.4.3-17.5.7-17.8 1.1-1.1 5.6-.8 10.9.8zM899.8 745.5l3.2 1.4v38.2l-3.2 1.4c-3 1.3-1.5 1.4 16.4 1.5h19.7l1.1-4.3c.6-2.3 1.3-5 1.6-6 .9-2.9-2-1.9-3.8 1.3-1 1.7-3.3 3.7-5.2 4.5-4.3 1.8-15.7 2-17.4.3-.7-.7-1.2-4.3-1.2-9V767h6c6.7 0 10.7 1.4 11.5 4.2 1.3 4 2.5 1.4 2.5-5.7 0-7.2-1.2-9.7-2.5-5.4-.9 2.7-4.4 3.9-11.6 3.9H911v-6.6c0-9.5.7-10.4 8.5-10.4 7.4 0 10.8 1.3 12.4 4.6 1.7 3.9 3.1 2.8 3.1-2.6v-5h-19.2c-17.5.1-19 .2-16 1.5zM955.3 745.9c-2.1 1.3-3.5 3.2-4.2 5.8-1.6 5.5.9 10 7.9 14 10.1 5.8 11.5 6.8 12.8 9.5 2.8 6-3.3 11.2-10.8 8.9-3.5-1-9.1-6.1-10.2-9.3-1.2-3.2-1.9.6-1.3 6.4l.7 6.3 9.9.3c14.8.4 20.2-2.8 20.2-11.9 0-5.1-2.9-8.1-12.8-13.7-3.8-2.2-7.8-5.1-8.9-6.5-1.8-2.4-1.8-2.7-.2-5.1.9-1.4 2.7-2.8 4.1-3.2 3.4-.8 9.6 2.4 12 6.3 2.7 4.3 5 4.4 4.1.2-.3-1.7-.6-4.6-.6-6.3v-3.2l-9.7-.2c-8.2-.2-10.3.1-13 1.7zM995.6 745.4c1.7.8 3.4 2.1 3.8 3.1.3.9.6 8.8.6 17.5s-.3 16.6-.6 17.5c-.4 1-2.1 2.3-3.8 3.1-2.8 1.2-2.2 1.3 7.9 1.3 10.4-.1 10.8-.1 7.8-1.5l-3.3-1.4v-38l3.3-1.4c3-1.4 2.6-1.4-7.8-1.5-10.1 0-10.7.1-7.9 1.3zM1038.5 745c-4.3 1.3-10.9 7.2-13 11.6-2 4.2-2.2 13.4-.5 17.9 1.8 4.8 7.9 10.3 13.3 12.1 6 2 17.2 1.5 23.5-1.1l4.2-1.7v-7.5c0-6.5.3-7.7 2.5-9.8l2.4-2.5h-18.4l3.3 2c3.1 1.9 3.2 2.2 3.2 8.9 0 7.9-.6 8.6-7.1 9.6-3.6.5-5.7.2-9.1-1.3-17.9-7.9-11.2-38.6 7.8-35.7 4.8.7 10.8 5 11.9 8.6.4 1 1.3 1.9 2.1 1.9 1.5 0 1.8-3.8.8-10l-.6-3.6-11.6-.1c-6.5-.1-13.1.2-14.7.7zM1082 745.8l3.5 1.7.3 17c.1 9.3 0 17.9-.2 19.1-.4 1.3-1.9 2.5-3.8 3.1-2.8.9-1.8 1.1 6.2 1.1s9-.2 6.2-1.1c-1.9-.6-3.4-1.8-3.8-3.1-.2-1.2-.3-8.2-.2-15.7l.3-13.7 14.8 17.4c8.2 9.6 15.2 17.2 15.8 16.9.5-.4.9-9.1.9-20.3 0-10.8.4-20.2.8-20.8.4-.6 2.1-1.6 3.7-2.2 2.5-.9 1.5-1-6.5-1-8.8 0-9.3 0-6 1.2l3.5 1.3.3 7.2c.2 3.9.2 10.1 0 13.7l-.3 6.5-12.5-15-12.4-15.1h-14.1l3.5 1.8z"/></svg>